#!OML:ASF H:\Dans Jumps\Project 1\Capture day 1\Session 1\subject.ASF
:FULLY-SPECIFIED
:DEGREES
532
root 0.48311 17.5902 6.95777 7.50886 -3.88492 -2.01769
lowerback -4.38837 -1.11871 -0.384218
upperback 0.345651 -1.51255 1.42641
thorax 2.86444 -0.770751 1.57965
lowerneck -5.06092 -10.3597 -6.61124
upperneck 5.38547 -13.7537 5.58939
head 3.60978 -6.78741 2.25858
rclavicle 7.62215e-015 -1.98785e-016
rhumerus -25.3328 -14.96 -81.5126
rradius 23.8338
rwrist 35.7201
rhand -19.4126 -26.4149
rfingers 7.12502
rthumb 6.90686 -56.2822
lclavicle 7.62215e-015 -1.98785e-016
lhumerus -28.0841 3.0759 87.7482
lradius 20.9748
lwrist 6.98089
lhand -26.9458 -5.59006
lfingers 7.12502
lthumb -0.36775 24.3894
rfemur -13.0127 -1.30963 20.3024
rtibia 23.3616
rfoot -16.1705 2.06112
rtoes 12.9566
lfemur -10.66 9.7607 -17.8555
ltibia 20.6235
lfoot -13.0068 8.41253
ltoes -0.427558
533
root 0.484634 17.5898 6.96058 7.49708 -3.88865 -2.02044
lowerback -4.40412 -1.11961 -0.360351
upperback 0.352206 -1.5153 1.43115
thorax 2.87963 -0.771872 1.57058
lowerneck -5.07215 -10.3502 -6.57824
upperneck 5.35773 -13.7378 5.54185
head 3.59357 -6.78027 2.23861
rclavicle 7.37367e-015 1.53064e-014
rhumerus -25.3601 -14.9835 -81.4787
rradius 23.8138
rwrist 35.7385
rhand -19.4383 -26.3846
rfingers 7.12502
rthumb 6.88209 -56.2527
lclavicle 7.37367e-015 1.53064e-014
lhumerus -28.0753 3.07645 87.7931
lradius 20.9746
lwrist 6.961
lhand -26.9226 -5.59557
lfingers 7.12502
lthumb -0.345326 24.3839
rfemur -12.9908 -1.31173 20.2988
rtibia 23.3653
rfoot -16.1793 2.06175
rtoes 12.933
lfemur -10.6394 9.76692 -17.8569
ltibia 20.6325
lfoot -13.0222 8.41719
ltoes -0.439097
534
root 0.485931 17.5892 6.96363 7.47879 -3.87815 -2.02089
lowerback -4.41791 -1.12572 -0.340218
upperback 0.362976 -1.52486 1.43657
thorax 2.8984 -0.776481 1.56383
lowerneck -5.07137 -10.3405 -6.54897
upperneck 5.31801 -13.7221 5.5029
head 3.57208 -6.77334 2.22299
rclavicle -1.11941e-014 1.13804e-014
rhumerus -25.3837 -15.0061 -81.4461
rradius 23.7919
rwrist 35.7547
rhand -19.4309 -26.3828
rfingers 7.12502
rthumb 6.88922 -56.2507
lclavicle -1.11941e-014 1.13804e-014
lhumerus -28.0686 3.06819 87.8414
lradius 20.9743
lwrist 6.9458
lhand -26.9028 -5.59652
lfingers 7.12502
lthumb -0.326246 24.383
rfemur -12.9576 -1.31582 20.295
rtibia 23.3681
rfoot -16.1926 2.04783
rtoes 12.9002
lfemur -10.6099 9.77148 -17.8571
ltibia 20.6365
lfoot -13.0371 8.41014
ltoes -0.458375
535
root 0.487045 17.5886 6.96692 7.45472 -3.85643 -2.02099
lowerback -4.43082 -1.13546 -0.320707
upperback 0.376562 -1.53927 1.44225
thorax 2.91975 -0.783537 1.55732
lowerneck -5.05514 -10.3304 -6.5224
upperneck 5.2686 -13.7067 5.47116
head 3.54524 -6.76671 2.21122
rclavicle 4.41053e-015 4.12478e-015
rhumerus -25.4117 -15.0255 -81.4155
rradius 23.7747
rwrist 35.7623
rhand -19.3898 -26.4153
rfingers 7.12502
rthumb 6.92891 -56.2819
lclavicle 4.41053e-015 4.12478e-015
lhumerus -28.0654 3.05214 87.8914
lradius 20.9691
lwrist 6.93183
lhand -26.8734 -5.577
lfingers 7.12502
lthumb -0.297779 24.4025
rfemur -12.9143 -1.32229 20.2924
rtibia 23.3706
rfoot -16.2092 2.0248
rtoes 12.8721
lfemur -10.5722 9.7743 -17.8544
ltibia 20.6361
lfoot -13.053 8.39405
ltoes -0.478529
